<?xml version="1.0" encoding="UTF-8" standalone="no"?>
<svg
   width="590"
   height="665"
   viewBox="0 0 590 665"
   version="1.1"
   id="svg18"
   sodipodi:docname="characterlogo.svg"
   inkscape:version="1.2.2 (732a01da63, 2022-12-09)"
   inkscape:export-filename="characterlogo.png"
   inkscape:export-xdpi="96"
   inkscape:export-ydpi="96"
   xmlns:inkscape="http://www.inkscape.org/namespaces/inkscape"
   xmlns:sodipodi="http://sodipodi.sourceforge.net/DTD/sodipodi-0.dtd"
   xmlns="http://www.w3.org/2000/svg"
   xmlns:svg="http://www.w3.org/2000/svg">
  <defs
     id="defs22">
    <filter
       style="color-interpolation-filters:sRGB"
       inkscape:label="Drop Shadow"
       id="filter10781"
       x="-0.043903488"
       y="-0.030294067"
       width="1.0914447"
       height="1.0668994">
      <feFlood
         flood-opacity="0.498039"
         flood-color="rgb(0,0,0)"
         result="flood"
         id="feFlood10771" />
      <feComposite
         in="flood"
         in2="SourceGraphic"
         operator="in"
         result="composite1"
         id="feComposite10773" />
      <feGaussianBlur
         in="composite1"
         stdDeviation="8"
         result="blur"
         id="feGaussianBlur10775" />
      <feOffset
         dx="4"
         dy="4"
         result="offset"
         id="feOffset10777" />
      <feComposite
         in="SourceGraphic"
         in2="offset"
         operator="over"
         result="composite2"
         id="feComposite10779" />
    </filter>
  </defs>
  <sodipodi:namedview
     id="namedview20"
     pagecolor="#ffffff"
     bordercolor="#000000"
     borderopacity="0.25"
     inkscape:showpageshadow="2"
     inkscape:pageopacity="0.0"
     inkscape:pagecheckerboard="0"
     inkscape:deskcolor="#d1d1d1"
     showgrid="false"
     inkscape:zoom="1"
     inkscape:cx="124.5"
     inkscape:cy="335.5"
     inkscape:window-width="1920"
     inkscape:window-height="991"
     inkscape:window-x="-9"
     inkscape:window-y="-9"
     inkscape:window-maximized="1"
     inkscape:current-layer="g8193"
     inkscape:lockguides="false" />
  <g
     id="g8193"
     transform="translate(16,8)">
    <ellipse
       style="fill:#e7dec9;fill-opacity:1"
       id="path2319-9"
       cx="365.60168"
       cy="571.35474"
       rx="41"
       ry="54" />
    <path
       id="path2319-9-6"
       style="fill:#e7dec9;stroke-width:0.810168"
       d="m 541.9154,501.46139 c 0,20.6633 -17.38971,37.41421 -38.84099,37.41421 -21.45128,0 -72.62276,-68.47568 -57.84099,-82.91421 14.5,-14.1633 36.3897,8.08578 57.84099,8.08578 21.45129,0 38.84099,16.75092 38.84099,37.41422 z"
       sodipodi:nodetypes="sssss" />
    <path
       d="m 124.38714,413.29041 c -1.27446,-6.10282 -4.1965,-12.10208 -5.49491,-19.28235 6.47976,1.30501 9.67385,1.28204 15.73753,3.07372 1.99781,4.97366 4.04444,13.77847 5.74488,19.28129 m 311.18061,-16.47219 c -1.16748,5.07081 -2.43566,8.23129 -3.64278,16.96509 5.10044,-1.20911 8.96923,-1.24601 12.29122,-2.10855 2.77172,-5.81937 4.67202,-15.66932 5.52901,-18.76398"
       stroke="none"
       fill="#8f7d7e"
       fill-rule="evenodd"
       id="path2"
       sodipodi:nodetypes="cccccccc" />
    <path
       d="m 48.811686,342.99876 c -8.877,6.621 -10.992,18.666 -6.296,35.856 1.878,6.875 2.164,14.146 5.968,19.046 9.109,9.597 24.056,3.184 21.74,-13.813 -4.344,-31.891 -12.38,-47.825 -21.412,-41.089"
       id="path3169" />
    <path
       d="m 55.101686,330.39676 c -14.818,3.484 -25.723,21.459 -22.902,37.208 3.042,16.986 13.896,38.612 18.774,43.726 14.815,15.53 51.129004,-1.809 47.698,-23.264 -0.958,-5.989 -10.893,-36.146 -13.03,-41.044 -4.508,-10.334 -6.558,-19.826 -18.04,-17.126"
       id="path3167"
       style="fill:#e7dec9;fill-opacity:1" />
    <path
       d="m 327.10169,129.44876 v 0"
       id="path8"
       sodipodi:nodetypes="cc" />
    <path
       id="path2109-6-7"
       style="fill:#fefdff"
       d="m 368.81114,554.41698 c 0.25748,18.25516 4.02496,30.87714 -11,43.75 -12.02901,10.30602 -19.86464,-0.82654 -19.86464,-0.82654 0,0 0.17744,-30.85885 -0.13536,-36.92346 -0.53737,-10.41869 8.40202,-27.25 20,-27.25 11.59798,0 10.83684,9.68203 11,21.25 z"
       sodipodi:nodetypes="sscsss" />
    <ellipse
       style="fill:#e7dec9;fill-opacity:1"
       id="path2319"
       cx="229.60168"
       cy="575.85474"
       rx="41"
       ry="54" />
    <path
       id="rect4304"
       style="fill:#e7dec9"
       d="m 323.10169,125.35476 c 0,0 58.3217,13.9867 83,30 20.18294,13.09634 37.48144,31.48752 50.06217,51.99582 14.66763,23.91024 23.48315,51.75213 27.59031,79.50046 3.1751,21.45121 1.74552,43.75952 -2.61092,65.00233 -2.54445,12.40723 -13.54156,35.50139 -13.54156,35.50139 l -87,13.5 3.75,-144.25 z"
       sodipodi:nodetypes="caaaacccc" />
    <path
       id="path2109-6"
       style="fill:#fefdff"
       d="m 232.73417,555.60359 c 0.25748,18.25516 4.02496,30.87714 -11,43.75 -12.02901,10.30603 -19.86464,-0.82654 -19.86464,-0.82654 0,0 0.17744,-30.85885 -0.13536,-36.92346 -0.53737,-10.41869 8.40202,-27.25 20,-27.25 11.59798,0 10.83684,9.68203 11,21.25 z"
       sodipodi:nodetypes="sscsss" />
    <path
       style="fill:#f9f0d9;fill-opacity:1"
       d="m 172.98269,431.88876 c -11.303,-1.295 -30.381,-2.293 -30.381,-0.687 0,1.687 19.364,25.006 24.868,31.587 30.09,35.978 131.351,32.166 179.166,-9.159 3.868,-3.344 10.143,-8.324 16.5,-17.123 -36.144,0.201 -61.859,3.731 -76.034,3.068 -41.665,-0.501 -22.229,0.067 -71,-4.27"
       id="path4087" />
    <path
       style="fill:#f9f0d9;fill-opacity:1"
       d="m 275.01269,124.27676 c -25.40387,2.26868 -49.15622,10.09303 -68.786,20.713 -23.56743,13.79859 -55.33166,43.54033 -69.036,64.625 -22.712,36.619 -31.814,76.71 -28.537,117.24 5.026,25.572 0.39552,44.80485 14.912,56.5 13.2467,10.67216 66.512,13.802 44.269,10.282 -19.41757,-3.12631 70.61156,6.88627 117.267,9.046 13.736,0.638 21.817,-1.18 65,-3.529 12.822,-0.698 23.511,-0.035 27.309,-0.176 4.60104,-0.18233 8.88985,-14.72773 9.669,-24.621 1.40713,-17.86712 2.33877,-49.2021 1.002,-73.752 -1.06091,-19.48374 -2.70313,-39.09993 -7.146,-58.1 -5.48076,-23.43864 -13.01291,-46.67176 -23.88,-68.15 -8.81322,-17.41888 -14.843,-26.936 -33.057,-48.343 -10.424,-6.272 -25.788,-3.432 -48.986,-1.735"
       id="path4085"
       sodipodi:nodetypes="ccccsccccsaaacc" />
    <path
       id="path2693"
       style="fill:#fefdff;stroke:#483546;stroke-width:0"
       d="m 308.29856,157.68482 c -1e-5,15.72722 -134.68551,181.72643 -158.39192,181.01933 -24.61248,-0.73412 -9.76971,-84.37164 25.71037,-127.85931 39.03579,-47.84586 125.36858,-70.29355 132.68155,-53.16002 z"
       sodipodi:nodetypes="cssc" />
    <ellipse
       style="fill:#fc8b8b;fill-opacity:1"
       id="path1883"
       cx="386.60168"
       cy="332.35477"
       rx="36.5"
       ry="27" />
    <path
       id="rect3881"
       style="fill:#f9f0d9;fill-opacity:1;stroke-width:0.806841"
       d="m 89.859159,415.95492 28.198491,13.53962 27.19847,7.53963 -2.91179,13.22047 -36.69848,-7.03963 -25.698473,-17.03963 z"
       sodipodi:nodetypes="ccccccc" />
    <ellipse
       style="fill:#fc8b8b;fill-opacity:1"
       id="path1881"
       cx="208.35168"
       cy="336.10477"
       rx="34.75"
       ry="28.25" />
    <path
       id="path1885"
       style="fill:#fc8b8b;fill-opacity:1"
       d="m 314.60169,350.60476 c 0,8.42234 -9.32766,15.25 -17.75,15.25 -8.42234,0 -17.75,-7.32766 -17.75,-15.75 0,-8.42234 7.32766,0.25 15.75,0.25 8.42234,0 19.75,-8.17234 19.75,0.25 z"
       sodipodi:nodetypes="sssss" />
    <path
       id="path3954"
       style="fill:#e7dec9"
       d="m 447.10169,429.85476 c -0.5,8.53021 -18.58812,40.40521 -51.66343,63.14766 -33.07531,22.74244 -75.63781,35.85234 -110.08657,35.85234 -68.89752,0 -115.25,-51.93959 -115.25,-60.5 0,-8.56041 136.85248,36 188.75,-29.5 42.39752,3 58.25,-7.06041 88.25,-9 z"
       sodipodi:nodetypes="cssscc" />
    <path
       id="path2109"
       style="fill:#fefdff"
       d="m 67.101686,365.10476 c 4.81543,17.61047 5.59798,37.25 -6,37.25 -5.79899,0 -10.26759,0.34481 -14.36464,-7.32654 -4.09706,-7.67135 -6.82256,-21.85885 -7.13536,-27.92346 -0.53737,-10.41869 1.40202,-25.75 13,-25.75 11.59798,0 11.33684,12.18203 14.5,23.75 z"
       sodipodi:nodetypes="ssssss" />
    <path
       d="m 139.85169,418.04676 c 9.5,1.846 52.094,9.068 100.75,13.011 21.247,1.722 99.794,2.224 120,0.503 35.672,-3.038 76.626,-9.522 84.644,-12.571 2.752,-1.046 5.47142,-10.50863 6.596,-19.888 -12.87542,1.12063 -107.293,10.628 -149.208,12.358 -57.976,-1.942 -94.93,-4.769 -169.032,-14.758"
       stroke="none"
       fill="#a1dccc"
       fill-rule="evenodd"
       id="path4"
       sodipodi:nodetypes="ccccccc"
       style="fill:#97a0fc;fill-opacity:1" />
    <path
       d="m 265.79169,113.31976 c -105.527,14.505 -185.969004,122.851 -167.078004,225.035 0.501,2.707 0.289,2.56 -2.169,-1.5 -18.225,-30.113 -65.66668,-21.32132 -74.89568,14.83568 -0.15192,4.81217 -1.19495,14.61171 -0.0363,20.23732 8.925,43.844 18.967,57.852 42.024,58.614 l 8.034,0.266 5.164,4.977 c 2.84,2.737 7.099,5.962 9.465,7.168 2.366,1.205 5.694,3.251 7.396,4.546 1.702,1.296 3.378,2.356 3.723,2.356 0.533,0 5.617004,2.195 14.183004,6.124 1.1,0.505 2.9,1.095 4,1.311 1.1,0.216 5.375,1.305 9.5,2.419 4.125,1.114 11.084,2.34 15.465,2.724 8.988,0.787 8.028,0.104 20.035,14.248 9.627,11.34 24.923,24.925 37.715,33.495 12.495,8.371 12.004,7.536 6.233,10.597 -6.181,3.279 -14.123,12.209 -17.862,20.082 l -3.086,6.5 v 31.036 31.035 l 3.191,6.44 c -2.58858,16.73466 -14.93376,5.05603 -25.84114,15.496 12.48174,11.55889 306.40614,13.461 329.61314,1.229 5.215,-2.748 -49.25,-8.736 -79.468,-8.736 h -7.957 l 3.731,-6.75 3.731,-6.75 v -31.5 -31.5 l -3.185,-6.723 c -3.653,-7.713 -10.302,-15.277 -17.472,-19.878 -2.728,-1.75 -4.596,-3.489 -4.151,-3.863 0.444,-0.375 5.308,-3.64 10.808,-7.258 11.428,-7.516 22.524,-17.041 32.065,-27.528 7.91,-8.694 6.483,-8.581 15.249,-1.202 6.834,5.753 6.47889,9.08443 6.47889,13.11843 0,17.82 10.99619,30.42256 29.57813,44.3695 18.58194,13.94694 39.60415,24.24434 58.70777,2.56437 19.10362,-21.67997 17.49901,-42.00081 -0.50123,-60.42002 -15.6374,-16.00137 -35.47711,-35.44023 -59.34533,-28.81773 -8.21751,-6.62906 -2.64523,-1.79155 -9.88623,-7.87555 l -9.655,-8.112 2.405,-5.918 c 3.036,-7.473 3.044,-11.101 0.032,-14.603 -2.617,-3.042 -2.266,-3.066 -17.628,1.167 -44.691,12.312 -144.579,17.303 -219,10.943 -35.157,-3.005 -88.516,-11.342 -92.5,-14.452 -5.464,-4.266 -11.218,-0.401 -10.241,6.88 l 0.516,3.849 -3.138,-1.006 c -12.92,-4.145 -14.546,-5.677 -10.984,-10.347 3.276,-4.295 3.435,-4.893 3.624,-13.638 0.146,-6.735 0.478,-7.584 2.273,-5.812 4.948,4.887 57.176,14.373 101.95,18.517 104.933,9.712 253.133,-2.956 262.698,-22.455 C 520.02936,266.33459 462.81702,194.23715 426.88626,159.92702 387.98367,119.59693 333.59471,115.86176 312.80271,110.65376 m -42.017,16.745 c -109.09402,14.863 -178.762024,119.257 -152.46502,228.456 6.289,26.117 5.556,25.076 20.038,28.472 87.487,20.515 227.107,20.888 315.112,0.842 l 11.869,-2.704 1.887,-4.401 c 54.985,-128.274 -55.934,-269.809 -196.441,-250.665 m -77.087,155.449 c -34.068,10.881 -40.39,57.953 -10.467,77.935 26.384,17.618 62.322,1.342 66.776,-30.244 4.481,-31.77 -25.816,-57.43 -56.309,-47.691 m 177.945,0.067 c -25.329,8.947 -36.948,36.379 -25.642,60.539 18.045,38.563 76.016,29.357 82.018,-13.025 4.51,-31.846 -26.572,-58.042 -56.376,-47.514 m 34.995,36.502 c -6.003,20.787 -25.271,25.926 -43.537,11.61 -7.336,-5.749 -8.061,-5.332 -5.578,3.209 8.385,28.843 55.613,23.922 55.572,-5.791 -0.015,-11.465 -4.103,-17.181 -6.457,-9.028 m -176.79,3.938 c -9.304,18.072 -26.683,20.849 -44.247,7.07 -6.685,-5.245 -7.683,-4.678 -5.572,3.162 6.696,24.866 40.475,28.16 52.012,5.072 3.33,-6.664 3.868,-12.222 1.675,-17.304 l -1.294,-3 -2.574,5 m -175.423004,10.879 c -21.5,7.032 -25.073,33.394 -9.124,67.324 12.51,26.613 58.265004,10.12 50.498,-18.203 -0.302,-1.1 -1.292,-5.15 -2.202,-9 -2.76,-11.689 -6.291,-23.179 -8.356,-27.195 -5.581,-10.853 -19.413,-16.655 -30.816,-12.926 m 221.676004,13.552 c 0,26.126 37.243,27.04 40.736,1.001 0.609,-4.541 0.596,-4.545 -8.236,-2.412 -6.879,1.661 -14.994,1.823 -21.5,0.429 -11.66,-2.499 -11,-2.558 -11,0.982 m 5,2.626 c 0,15.33 23.409,17.823 29.494,3.141 l 1.576,-3.802 -3.785,0.802 c -4.718,1 -19.684,1.048 -24.035,0.077 -1.788,-0.399 -3.25,-0.497 -3.25,-0.218 m -188.678004,71.769 c -4.804,1.774 -4.781,2.076 0.524,6.846 11.901004,10.7 47.154004,23.135 47.154004,16.633 0,-4.029 -2.075,-5.454 -12,-8.244 -11.542,-3.245 -22.077,-8.192 -27.659,-12.988 -2.287004,-1.965 -4.312004,-3.539 -4.500004,-3.497 -0.188,0.042 -1.771,0.604 -3.519,1.25 m 344.178004,11.32 c -68.488,14.471 -185.898,15.078 -270.5,1.398 -18.709,-3.025 -19.638,-2.765 -14.19,3.978 1.546,1.913 3.883,5.278 5.194,7.478 62.59,105.061 223.291,102.831 281.473,-3.906 5.646,-10.357 5.603,-10.549 -1.977,-8.948 m 11.677,22.003 c -3.963,6.899 -4.817,5.205 8.363,16.569 l 11.04,9.517 c -8.04276,20.5418 3.95477,33.28936 19.65252,43.68216 15.69775,10.3928 28.94967,18.94513 42.3475,2.37035 13.39783,-16.57478 7.15431,-33.91339 -4.55152,-42.31217 -14.08623,-10.10668 -26.80061,-27.83189 -48.8145,-15.29834 l -11.963,-10.088 c -14.122,-11.91 -12.104,-11.352 -16.074,-4.44 m -225.459,73.413 c -8.486,2.064 -17.157,9.062 -21.557,17.398 l -2.661,5.04 v 26.5 26.5 l 2.974,5.37 c 5.446,9.832 6.265,10.13 27.836,10.13 h 18.62 l 3.594,-3.155 c 7.704,-6.765 7.976,-8.054 7.976,-37.865 v -26.519 l -3.285,-6.674 c -6.159,-12.514 -20.785,-19.816 -33.497,-16.725 m 135.692,0.025 c -19.719,4.665 -24.717,15.322 -24.237,51.683 0.367,27.738 0.762,29.453 8.303,36.075 l 3.594,3.155 h 19.149 19.149 l 4.585,-4.757 c 7.145,-7.413 10.584,-47.969 5.515,-65.039 -4.181,-14.079 -21.912,-24.463 -36.058,-21.117 m -85.993,13.913 c 1.969,4.254 2.083,6.195 2.083,35.5 v 31 l -2.579,5.5 -2.58,5.5 27.628,0.151 27.627,0.151 -2.548,-5.149 -2.548,-5.149 v -31.502 c 0,-29.815 0.112,-31.743 2.083,-36.002 l 2.084,-4.5 h -26.667 -26.666 l 2.083,4.5"
       stroke="none"
       fill="#483546"
       fill-rule="evenodd"
       id="path575"
       sodipodi:nodetypes="ccccccccccscssccsccccccccscccccccccccszzscccccccccccsccsccccccccccccccccscccscccccsccccccccccccccccccscccscsscccccccccczzscccccccccsccscccccccccssccscccccccsccccc"
       style="fill:#483546;fill-opacity:1" />
    <path
       id="path541"
       style="fill:#ffffff"
       d="m 486.84739,476.61949 c 8.64557,4.78694 2.81806,7.59437 4.29046,16.28668 1.09988,6.49313 5.72784,3.22044 -1.28186,13.68386 -6.34319,9.46852 -20.35938,0.77011 -17.79046,-18.28668 1.5268,-11.32616 7.52856,-15.69992 14.78186,-11.68386 z"
       sodipodi:nodetypes="sssss" />
    <ellipse
       style="fill:#483546;fill-opacity:1;stroke:#483546;stroke-width:9.68515"
       id="path2007"
       cx="146.72466"
       cy="84.145706"
       rx="4.46071"
       ry="4.1071572" />
    <ellipse
       style="fill:#483546;fill-opacity:1;stroke:#483546;stroke-width:9.68515"
       id="path2007-9"
       cx="55.154327"
       cy="197.9899"
       rx="4.46071"
       ry="4.1071572" />
    <ellipse
       style="fill:#483546;fill-opacity:1;stroke:#483546;stroke-width:9.68515"
       id="path2007-4"
       cx="133.64317"
       cy="531.03717"
       rx="4.46071"
       ry="4.1071572" />
    <ellipse
       style="fill:#483546;fill-opacity:1;stroke:#483546;stroke-width:9.68515"
       id="path2007-3"
       cx="42.426407"
       cy="483.66104"
       rx="4.46071"
       ry="4.1071572" />
    <ellipse
       style="fill:#483546;fill-opacity:1;stroke:#483546;stroke-width:9.68515"
       id="path2007-40"
       cx="9.1923847"
       cy="377.59503"
       rx="4.46071"
       ry="4.1071572" />
    <ellipse
       style="fill:#483546;fill-opacity:1;stroke:#483546;stroke-width:9.68515"
       id="path2007-5"
       cx="430.62802"
       cy="82.731491"
       rx="4.46071"
       ry="4.1071572" />
    <ellipse
       style="fill:#483546;fill-opacity:1;stroke:#483546;stroke-width:9.68515"
       id="path2007-0"
       cx="545.88641"
       cy="201.52544"
       rx="4.46071"
       ry="4.1071572" />
    <path
       style="fill:#483546;fill-opacity:1;stroke:#483546;stroke-width:8"
       d="m 178.89802,222.03153 c 1.28825,-6.59442 56.38942,3.13181 120.48749,3.14207 64.09807,0.0103 111.48162,-11.52891 114.27196,-7.38471 3.24071,4.81308 -54.9441,15.73392 -117.37973,15.55635 -62.43563,-0.17757 -118.14493,-7.39667 -117.37972,-11.31371 z"
       id="path2639"
       sodipodi:nodetypes="ssszs" />
    <path
       style="fill:#483546;fill-opacity:1;stroke:#483546;stroke-width:8;stroke-dasharray:none"
       d="m 296.14648,78.781325 c 0,0 0.33101,-87.2190783 0.26253,-69.1743012 z"
       id="path3404"
       sodipodi:nodetypes="sss" />
    <ellipse
       style="fill:#f9f0d9;fill-opacity:1;stroke:#483546;stroke-width:9.36423;stroke-dasharray:none"
       id="path3406"
       cx="295.75"
       cy="96.5"
       rx="16.067888"
       ry="15.817889" />
  </g>
</svg>
