<?xml version="1.0" encoding="UTF-8" standalone="no"?>
<!-- Created with Inkscape (http://www.inkscape.org/) -->

<svg
   version="1.1"
   id="svg182"
   width="800"
   height="210"
   viewBox="0 0 800 210"
   sodipodi:docname="textlogo.svg"
   inkscape:version="1.2.2 (732a01da63, 2022-12-09)"
   inkscape:export-filename="textlogo.png"
   inkscape:export-xdpi="96"
   inkscape:export-ydpi="96"
   xmlns:inkscape="http://www.inkscape.org/namespaces/inkscape"
   xmlns:sodipodi="http://sodipodi.sourceforge.net/DTD/sodipodi-0.dtd"
   xmlns="http://www.w3.org/2000/svg"
   xmlns:svg="http://www.w3.org/2000/svg">
  <defs
     id="defs186">
    <filter
       style="color-interpolation-filters:sRGB"
       inkscape:label="Drop Shadow"
       id="filter6770"
       x="-0.030121993"
       y="-0.13215794"
       width="1.0654255"
       height="1.2869604">
      <feComposite
         in2="SourceGraphic"
         k3="1"
         k2="1"
         operator="arithmetic"
         result="composite1"
         id="feComposite6766"
         k1="0"
         k4="0" />
    </filter>
    <filter
       style="color-interpolation-filters:sRGB"
       inkscape:label="Drop Shadow"
       id="filter316"
       x="-0.030121993"
       y="-0.13215794"
       width="1.0654255"
       height="1.2869604">
      <feFlood
         flood-opacity="0.498039"
         flood-color="rgb(0,0,0)"
         result="flood"
         id="feFlood306" />
      <feComposite
         in="flood"
         in2="SourceGraphic"
         operator="in"
         result="composite1"
         id="feComposite308" />
      <feGaussianBlur
         in="composite1"
         stdDeviation="8"
         result="blur"
         id="feGaussianBlur310" />
      <feOffset
         dx="4"
         dy="4"
         result="offset"
         id="feOffset312" />
      <feComposite
         in="SourceGraphic"
         in2="offset"
         operator="over"
         result="composite2"
         id="feComposite314" />
    </filter>
  </defs>
  <sodipodi:namedview
     id="namedview184"
     pagecolor="#ffffff"
     bordercolor="#000000"
     borderopacity="0.25"
     inkscape:showpageshadow="2"
     inkscape:pageopacity="0.0"
     inkscape:pagecheckerboard="0"
     inkscape:deskcolor="#d1d1d1"
     showgrid="false"
     inkscape:zoom="1"
     inkscape:cx="275.5"
     inkscape:cy="11.5"
     inkscape:window-width="1920"
     inkscape:window-height="991"
     inkscape:window-x="-9"
     inkscape:window-y="-9"
     inkscape:window-maximized="1"
     inkscape:current-layer="g188" />
  <g
     inkscape:groupmode="layer"
     inkscape:label="Image"
     id="g188"
     transform="translate(-24.737285,-107.54946)"
     filter="url(#dropshadow)">
    <path
       id="path1169"
       style="fill:#483546;stroke:none;stroke-width:6.20901"
       d="m 805.59741,297.55299 c -4.94975,6.81508 -189.15787,8.1215 -283.90338,8.30588 -103.68234,0.20178 -305.11658,0.21297 -310.77344,-7.87993 3.53553,-5.9632 206.12637,-8.77741 309.35922,-8.73181 95.21684,0.0421 278.24654,1.91673 285.3176,8.30586 z"
       sodipodi:nodetypes="cacac" />
    <path
       style="fill:#97a0fc;fill-opacity:1;stroke:#483546;stroke-width:8;stroke-dasharray:none;stroke-opacity:1"
       d="m 729.86008,297.74413 c -10.78315,-2.74349 -13.52688,-10.94457 -7.82693,-23.3949 l 2.5739,-5.62214 4.19084,1.47862 c 9.60154,3.38761 18.71005,0.96955 22.68171,-6.02139 4.0122,-7.0623 2.99274,-8.91171 -5.23673,-9.5 l -6.99442,-0.5 -13.24425,-41.5 c -16.25386,-50.93038 -16.16437,-45.48773 -0.76692,-46.63927 20.15364,-1.50723 23.3861,2.4054 30.14558,36.48882 2.46669,12.43784 4.66113,22.7905 4.87653,23.00589 2.00618,2.00618 3.51977,-2.40312 6.87207,-20.01929 5.8592,-30.7898 7.64029,-34.77438 17.17095,-38.41417 8.47306,-3.2359 25.35759,-0.41086 24.61234,4.11801 -1.27542,7.75068 -24.95511,94.38386 -27.31673,99.93943 -8.97762,21.11936 -30.24917,32.04763 -51.73794,26.58039 z m -245.43282,-1.70316 c -0.37949,-0.37949 -0.68998,-29.6076 -0.68998,-64.95136 v -64.26138 l 5.63458,-0.70399 c 11.51442,-1.43863 21.43237,0.66162 25.77277,5.4577 2.57583,2.84627 3.8351,2.66742 9.00514,-1.27896 22.63702,-17.27923 49.76885,0.75338 51.33722,34.12022 1.8847,40.09664 -21.38062,64.02251 -49.0202,50.41199 -7.77829,-3.83025 -7.6525,-4.14728 -7.95951,20.06007 l -0.27,21.28906 -16.56002,0.27332 c -9.108,0.15032 -16.8705,-0.0372 -17.25,-0.41667 z m 47.17672,-66.78772 c 8.73949,-4.51937 9.53338,-31.52606 1.10985,-37.7551 -3.53709,-2.61561 -8.9989,-3.31276 -11.47655,-1.46488 -2.67869,1.99782 -3.13255,38.00964 -0.5,39.67278 2.22414,1.40513 7.71642,1.17627 10.8667,-0.4528 z m -277.69041,27.36107 c -46.02529,-9.05742 -44.64741,-82.11693 1.71453,-90.90929 34.62911,-6.56728 58.42261,11.32194 58.49453,43.97929 0.0765,34.75608 -24.54606,53.94819 -60.20906,46.93 z m 20.00055,-27.68 c 6.59581,-7.11026 6.81439,-28.65135 0.36139,-35.61425 -5.43278,-5.86206 -14.93334,-2.07943 -17.43838,6.94305 -4.25003,15.30749 1.08347,31.4212 10.40015,31.4212 3.21579,0 4.68849,-0.60656 6.67684,-2.75 z m 337.55763,27.72214 c -9.44393,-2.37592 -16.06388,-8.14156 -19.42262,-16.91613 -1.55166,-4.05366 -1.78116,-9.82146 -2.08139,-52.31042 l -0.33744,-47.75442 2.80349,-1.09407 c 3.90086,-1.52233 20.04159,-0.60323 23.80895,1.35575 6.66101,3.46364 8.42762,6.98818 9.38194,18.71775 l 0.6126,7.5294 11.5,0.5 11.5,0.5 v 12.5 12.5 l -11.5,0.5 -11.5,0.5 v 17.34 17.34 l 2.36078,1.91 c 3.13706,2.53804 10.07436,2.4939 15.1518,-0.0964 l 3.9329,-2.00642 1.48919,2.27279 c 10.69261,16.31899 1.89772,26.58081 -23.43467,27.34342 -5.775,0.17386 -12.19449,-0.1102 -14.26553,-0.63123 z m -168.45942,-0.88695 c -10.95208,-2.79273 -11.68311,-4.85835 -12.27505,-34.68516 -0.56711,-28.57572 -0.79142,-29.40003 -8,-29.40003 -6.94743,0 -6.93714,-0.0477 -7.23483,33.56198 l -0.26517,29.93802 -17.70841,0.27291 -17.70841,0.2729 -0.29159,-30.60457 c -0.32465,-34.07433 -0.18661,-33.44124 -7.29159,-33.44124 -7.07284,0 -6.94384,-0.57048 -7.5,33.16822 l -0.5,30.33178 h -17.5 -17.5 l -0.26076,-43.43924 c -0.16603,-27.658 0.0985,-43.79848 0.72811,-44.42811 4.00158,-4.00157 24.17478,-1.30592 30.06748,4.01778 l 3.92147,3.54282 4.245,-3.63356 c 11.12446,-9.52212 29.63815,-8.76406 40.44561,1.65609 l 4.14692,3.9983 2.85308,-3.2116 c 12.91293,-14.53552 39.74806,-11.42621 47.55424,5.50998 l 2.29885,4.98754 0.3098,34.8902 c 0.20835,23.46546 -0.0345,35.2345 -0.74163,35.94163 -1.3092,1.3092 -17.42814,1.86641 -21.79312,0.75336 z m 234.84775,-0.0236 c -12.39435,-3.15985 -12.11943,-1.54387 -12.12125,-71.25029 l -0.002,-59.68875 4.59401,-0.68892 c 13.47534,-2.02075 24.7445,1.50274 28.30059,8.84865 l 2.1054,4.34917 v 58.57729 c 0,54.85286 -0.11127,58.62207 -1.75,59.28173 -2.78388,1.12063 -17.41984,1.51626 -21.1272,0.57109 z M 39.403952,255.01765 c -0.516225,-0.0489 -0.666667,-28.24627 -0.666667,-61.95468 v -61.28802 l 3.75,-0.76065 c 8.207465,-1.6648 51.304594,-0.9528 58.250005,0.96234 49.61266,13.68028 38.29055,78.80215 -14.319179,82.36022 -12.491964,0.84485 -11.680826,-0.68078 -11.680826,21.9699 v 19.37756 H 57.403952 c 0,0 -14.133334,-0.3 -18,-0.66667 z m 47.833333,-66.2053 c 13.050715,-7.28138 9.093769,-33.89742 -5.327007,-35.83165 -6.999992,-0.9389 -7.172993,-0.47398 -7.172993,19.27638 0,20.83683 1.430429,22.73132 12.5,16.55527 z m 59.189465,66.2281 c -1.32013,-1.32012 -0.80972,-87.16378 0.52315,-87.98754 5.77625,-3.56992 24.04163,-0.94057 29.83689,4.2951 l 3.93615,3.55608 3.6918,-3.24143 c 19.26079,-16.91121 36.67294,-5.92744 28.37903,17.90179 -3.77141,10.83564 -4.03431,11.06462 -9.29634,8.09687 -6.36783,-3.5914 -14.72722,-3.45848 -18.48514,0.29394 l -2.77501,2.77094 -0.5,27.22906 -0.5,27.22906 -17.06053,0.2728 c -9.3833,0.15004 -17.3708,-0.0375 -17.75,-0.41667 z"
       id="path1094"
       sodipodi:nodetypes="sscssscssssssssssscsssssscssssssssssssssssssscssscccccccccsscsssssssscccssscccscscsscsscssscccsscssccsscssssccssssscsscsssscccsc" />
    <path
       id="rect3411"
       style="fill:#cfede5;stroke-width:5.65685"
       d="m 44.043381,137.21952 h 10.606602 c -3.054034,19.1356 -5.800855,37.82612 -10.606602,56.56853 z"
       sodipodi:nodetypes="cccc" />
    <path
       id="rect1223"
       style="fill:#fefdff;stroke-width:5.63617"
       d="m 46.164703,136.51241 h 12.727923 c -3.076043,8.68715 -7.883435,16.29045 -12.727923,24.04163 z"
       sodipodi:nodetypes="cccc" />
    <path
       id="rect3411-4"
       style="fill:#cfede5;stroke-width:5.65685"
       d="m 151.87717,172.92841 12.02082,2.12132 c -3.05403,19.13561 -7.21507,35.7048 -12.02082,54.44721 v -19.44543 z"
       sodipodi:nodetypes="ccccc" />
    <path
       id="rect1223-0"
       style="fill:#fefdff;stroke-width:5.63617"
       d="m 153.99849,172.22131 14.14214,2.82842 c -3.07605,8.68715 -9.29765,13.46202 -14.14214,21.2132 z"
       sodipodi:nodetypes="cccc" />
    <path
       id="rect3411-4-8"
       style="fill:#cfede5;stroke-width:5.65685"
       d="m 335.01782,172.92842 12.02082,2.12131 c -3.05403,19.13561 -7.21507,35.7048 -12.02082,54.44721 v -19.44543 z"
       sodipodi:nodetypes="ccccc" />
    <path
       id="rect1223-0-7"
       style="fill:#fefdff;stroke-width:5.63617"
       d="m 337.13914,172.22131 14.14214,2.82842 c -3.07605,8.68715 -9.29765,13.46202 -14.14214,21.2132 z"
       sodipodi:nodetypes="cccc" />
    <path
       id="rect3411-4-6"
       style="fill:#cfede5;stroke-width:5.65685"
       d="m 489.1671,172.92842 12.02082,2.12132 c -3.05403,19.1356 -7.21507,35.70479 -12.02082,54.4472 v -19.44543 z"
       sodipodi:nodetypes="ccccc" />
    <path
       id="rect1223-0-8"
       style="fill:#fefdff;stroke-width:5.63617"
       d="m 491.28842,172.22131 14.14214,2.82842 c -3.07605,8.68715 -9.29765,13.46203 -14.14214,21.2132 z"
       sodipodi:nodetypes="cccc" />
    <path
       id="rect3411-48"
       style="fill:#cfede5;stroke-width:5.65685"
       d="m 595.23311,144.64414 h 10.6066 c -3.05403,19.13561 -5.80085,37.82612 -10.6066,56.56853 z"
       sodipodi:nodetypes="cccc" />
    <path
       id="rect1223-1"
       style="fill:#fefdff;stroke-width:5.63617"
       d="m 597.35443,143.93703 12.72793,0.70711 c -3.07605,8.68715 -7.88344,15.58334 -12.72793,23.33452 z"
       sodipodi:nodetypes="cccc" />
    <path
       id="rect3411-2"
       style="fill:#cfede5;stroke-width:5.65685"
       d="m 671.60065,130.50201 h 10.6066 c -3.05403,19.1356 -5.80085,37.82611 -10.6066,56.56853 z"
       sodipodi:nodetypes="cccc" />
    <path
       id="rect1223-4"
       style="fill:#fefdff;stroke-width:5.63617"
       d="m 673.72197,129.7949 13.43503,0.7071 c -3.07605,8.68715 -8.59054,15.58335 -13.43503,23.33453 z"
       sodipodi:nodetypes="cccc" />
    <path
       id="rect3411-9"
       style="fill:#cfede5;stroke-width:5.65685"
       d="m 719.68391,172.22131 h 10.6066 c 2.60282,22.67113 5.51286,39.24032 7.07107,53.7401 z"
       sodipodi:nodetypes="cccc" />
    <path
       id="rect1223-5"
       style="fill:#fefdff;stroke-width:5.63617"
       d="m 721.09812,172.22131 h 12.72793 c -3.07605,8.68714 -5.05502,16.29044 -4.94976,24.74873 z"
       sodipodi:nodetypes="cccc" />
    <path
       id="rect3411-4-3"
       style="fill:#cfede5;stroke-width:5.65685"
       d="m 234.60866,188.83832 c 7.45743,-15.27678 25.45585,-17.67767 25.45585,-17.67767 -7.29667,7.8219 -13.4777,16.20235 -19.09189,24.74872 -5.61419,8.54638 -12.72792,30.75916 -12.72792,30.75916 -2.12133,-11.31371 -1.09347,-22.55344 6.36396,-37.83021 z"
       sodipodi:nodetypes="zczcz" />
    <path
       id="rect1223-0-3"
       style="fill:#fefdff;stroke-width:5.63617"
       d="m 239.91196,181.76724 c 5.54195,-6.29685 14.84925,-9.19238 14.84925,-9.19238 -3.07605,8.68714 -17.78293,21.24019 -21.21321,25.45584 0,0 0.82201,-9.9666 6.36396,-16.26346 z"
       sodipodi:nodetypes="zccz" />
  </g>
</svg>
